# xmcd
#
# Track frame offsets:
#	150
#	12970
#	31140
#	41882
#	57897
#	69672
#	83045
#	95140
#	108857
#	126307
#
# Disc length: 1852 seconds
#
# Revision: 0
# Processed by: cddbd v1.5.2PL0 Copyright (c) Steve Scherf et al.
# Submitted via: dBpowerAMP V4.0
#
DISCID=82073a0a
DTITLE=Uncle Butchie - Rich Dreams
DYEAR=1996
DGENRE=Country
TTITLE0=Cinderella
TTITLE1=Wondering
TTITLE2=Congratulations
TTITLE3=Mexican Wind
TTITLE4=Knee deep in the blues
TTITLE5=Talk in my sleep
TTITLE6=Jones on the jukebox
TTITLE7=Coldest old flam
TTITLE8=I'm Sorry
TTITLE9=Ease up
EXTD=Uncle Butchie\n
EXTT0=
EXTT1=
EXTT2=
EXTT3=
EXTT4=
EXTT5=
EXTT6=
EXTT7=
EXTT8=
EXTT9=
PLAYORDER=
